<svg width="633" height="509" viewBox="0 0 633 509" fill="none" xmlns="http://www.w3.org/2000/svg">
<path d="M615.94 223.815C612.756 229.212 572.446 256.523 547.994 260.564C543.263 261.347 538.096 261.615 533.986 259.144C531.558 257.685 529.748 255.409 528.03 253.157C524.1 248.008 520.352 242.721 516.793 237.31C514.923 234.466 513.068 231.497 512.433 228.153C510.75 219.299 517.888 211.346 524.942 205.735C541.157 192.838 560.143 183.443 580.231 178.374C583.787 177.477 587.558 176.717 591.081 177.737C596.799 179.391 600.218 185.177 602.399 190.715C604.581 196.253 606.283 202.31 610.643 206.362C611.639 207.287 619.124 218.417 615.94 223.815Z" fill="white"/>
<path fill-rule="evenodd" clip-rule="evenodd" d="M399.342 459.102C360.22 465.793 378.866 437.359 384.261 401.77C393.126 343.291 404.058 254.423 404.058 254.423C404.058 254.423 411.187 389.837 411.187 422.809C411.187 455.782 404.057 458.296 399.342 459.102Z" fill="white"/>
<path d="M357.541 426.885C358.539 436.301 359.592 445.917 363.594 454.5C361.41 435.065 359.227 415.631 357.044 396.196C356.774 393.796 356.854 390.741 359.062 389.763C360.93 411.708 363.715 433.575 367.408 455.288C367.846 457.865 363.974 459.338 361.8 457.887C359.625 456.435 358.929 453.608 358.435 451.04C354.831 432.33 352.85 413.307 352.521 394.256C347.933 395.16 344.716 399.607 343.788 404.19C342.86 408.773 343.754 413.506 344.648 418.095C347.525 432.868 350.402 447.641 353.28 462.414C354.625 469.324 355.971 476.464 354.486 483.345C348.776 457.275 344.185 430.959 340.731 404.495C296.917 431.287 240.462 436.269 192.633 417.565C182.187 413.48 171.813 408.066 164.913 399.223C159.478 392.257 156.578 383.608 155.058 374.903C149.662 343.991 160.72 312.459 175.729 284.9C181.424 274.444 187.91 263.553 187.45 251.655C187.292 247.559 186.409 243.023 188.801 239.694C189.139 240.31 173.141 125.87 179.559 100.557C195.009 39.6156 245.201 31.3624 277.337 32.1141C298.899 32.6185 435.573 59.7801 455.32 96.717C481.273 145.263 475.763 186.077 471.154 212.989C469.782 221.003 404.076 253.833 404.058 253.998C400.302 288.919 375.094 365.009 353.953 393.055C355.149 404.332 356.345 415.608 357.541 426.885Z" fill="white"/>
<path fill-rule="evenodd" clip-rule="evenodd" d="M42.0617 284.796C29.7396 279.877 15.0553 281.336 3.94613 288.582C2.87064 289.284 1.32436 288.502 0.791945 287.335C0.259527 286.168 0.458675 284.81 0.731015 283.556C4.27906 267.229 18.4134 254.735 34.1321 248.994C49.8508 243.252 67.0444 243.236 83.7535 244.218C85.4114 244.315 87.1443 244.445 88.5586 245.314C89.9728 246.183 90.9244 248.042 90.2195 249.543C83.6465 263.539 78.6952 278.294 75.4956 293.418C74.9768 295.871 72.4355 297.498 69.9327 297.702C67.4299 297.907 64.9776 296.983 62.7063 295.914C55.6277 292.583 49.3282 287.697 42.0617 284.796" fill="white"/>
<path fill-rule="evenodd" clip-rule="evenodd" d="M420.808 38.3112C421.419 28.9448 420.713 19.4932 418.716 10.3217L418.674 10.1263L418.674 10.126C418.335 8.57531 417.987 6.98025 418.299 5.42829C418.99 1.99582 422.802 -0.0702347 426.302 0.00182515C429.803 0.073885 433.045 1.74489 436.143 3.37676C450.999 11.2026 466.123 19.2261 477.819 31.2729C478.186 41.0257 475.887 50.6503 473.618 60.1514L473.405 61.0444C463.933 100.755 456.176 140.876 450.164 181.256C449.588 185.126 448.495 189.692 444.824 191.047C442.191 192.02 439.129 190.777 437.259 188.684C435.388 186.591 434.494 183.813 433.87 181.076C432.331 174.323 432.145 167.265 433.328 160.441C434.051 156.268 435.274 152.209 436.497 148.149L436.497 148.148L436.497 148.148L436.497 148.148L436.497 148.147L436.498 148.147L436.498 148.147L436.498 148.146C437.595 144.502 438.694 140.857 439.431 137.127C440.168 133.398 440.54 129.606 440.9 125.821C442.817 105.694 444.444 85.5395 445.778 65.3655C445.967 62.5147 446.138 59.5743 445.205 56.8741C443.544 52.0717 438.705 49.0363 433.818 47.6446C432.976 47.4047 432.12 47.2006 431.265 46.9967C429.273 46.5219 427.283 46.0475 425.467 45.122C422.87 43.799 420.618 41.2195 420.808 38.3112ZM429.885 37.5414C436.793 38.9992 443.544 41.2005 449.984 44.095C451.281 44.6777 452.644 45.36 453.345 46.597C453.917 47.6073 453.95 48.824 453.967 49.985C454.169 63.6203 454.212 77.2917 452.768 90.8518C451.904 98.9717 450.509 107.021 449.114 115.069C448.673 117.616 448.232 120.164 447.807 122.713C445.706 135.33 444.015 148.014 442.737 160.74C441.81 169.974 441.132 179.518 444.004 188.342C445.478 188.073 446.044 186.298 446.324 184.826L472.868 44.9186C473.511 41.5288 474.153 38.0241 473.395 34.658C472.069 28.7649 466.838 24.6673 461.795 21.3425C452.086 14.942 441.752 9.49072 430.988 5.09173C430.093 15.8818 429.724 26.7155 429.885 37.5414ZM443.535 129.426C448.395 104.476 450.59 79.0069 450.072 53.5926C450.033 51.6731 449.93 49.6103 448.756 48.0912C447.896 46.9781 446.581 46.3261 445.297 45.751C440.476 43.5913 435.406 41.9841 430.221 40.9712C428.72 40.678 426.514 40.9957 426.58 42.5236L445.217 50.2252C446.311 50.677 447.475 51.1879 448.093 52.1966C448.699 53.186 448.64 54.4288 448.561 55.5863L443.535 129.426ZM426.191 2.62371C424.655 1.60511 422.435 2.65511 421.579 4.28784C420.723 5.92057 420.853 7.87517 421.047 9.70839C421.332 12.3981 421.706 15.0892 422.081 17.7807C423.121 25.248 424.161 32.7182 423.277 40.1699C424.687 40.6536 426.26 39.6602 426.944 38.3361C427.628 37.012 427.645 35.4566 427.648 33.9664L427.695 7.09445C427.698 5.45211 427.56 3.53119 426.191 2.62371ZM439.992 187.736C439.145 181.095 438.924 174.375 439.33 167.693C439.548 164.12 439.944 160.559 440.34 156.999L440.341 156.999C440.865 152.291 441.389 147.585 441.498 142.852C437.627 154.374 436.166 166.699 437.234 178.806C437.513 181.955 438.028 185.258 439.992 187.736ZM442.122 136.046C442.745 135.767 443.006 134.892 442.639 134.317C442.006 134.629 441.738 135.512 442.089 136.123L442.122 136.046ZM436.334 78.3422C405.528 59.3437 370.695 47.961 335.859 38.139C324.724 34.9991 313.495 31.9905 301.997 30.7024C267.928 26.8857 233.391 38.6403 205.063 57.9474C193.701 65.6907 182.74 75.2153 177.831 88.0581C174.189 97.587 174.215 108.077 174.566 118.272C175.777 153.434 180.289 188.389 184.796 223.282C188.319 222.646 188.667 217.773 188.157 214.23C183.471 181.69 180.843 148.853 180.295 115.982C180.142 106.765 180.19 97.3148 183.38 88.6655C189.154 73.0084 204.047 62.7687 218.661 54.7103C237.067 44.5605 257.075 36.0284 278.089 35.5755C303.544 35.0269 327.671 46.3181 349.908 58.7189C362.305 65.6324 374.874 73.3526 382.76 85.1544C389.921 95.8707 392.523 108.931 394.402 121.682C400.366 162.151 400.584 203.22 400.791 244.126C400.8 245.781 400.698 247.677 399.402 248.706C398.516 249.409 397.305 249.497 396.176 249.556L354.647 251.718C373.999 257.281 395.465 255.087 413.291 245.723L459.434 221.482C463.741 219.22 468.186 216.843 471.154 212.989C475.24 207.685 475.824 200.549 476.017 193.857C476.729 169.14 474.257 144.334 468.683 120.244C470.615 146.304 470.883 172.487 469.485 198.581C469.246 203.037 468.889 207.712 466.466 211.459C463.877 215.462 459.378 217.729 455.091 219.812L405.293 244.016C407.354 205.323 405.755 166.437 400.525 128.045C398.767 115.132 396.523 102.038 390.613 90.4228C376.648 62.973 345.738 49.3945 317.169 37.8886C359.881 50.3842 403.079 63.0864 441.504 85.5342C442.003 82.433 439.007 79.9911 436.334 78.3422ZM595.48 196.451C597.694 202.157 600.807 208.24 606.528 210.415C607.883 210.52 608.693 208.722 608.248 207.438C607.877 206.365 607.003 205.584 606.145 204.816L606.145 204.816C606.048 204.729 605.951 204.643 605.856 204.556C605.784 204.492 605.713 204.427 605.643 204.362C602.003 200.979 600.215 196.198 598.455 191.489L598.454 191.485C598.106 190.555 597.759 189.628 597.399 188.714C595.218 183.176 591.799 177.391 586.081 175.736C582.558 174.717 578.787 175.477 575.231 176.374C555.143 181.443 536.157 190.838 519.942 203.735C512.888 209.345 505.75 217.299 507.433 226.153C508.068 229.497 509.923 232.466 511.793 235.31C515.352 240.721 519.1 246.008 523.03 251.157C524.748 253.409 526.558 255.685 528.986 257.144C533.096 259.615 538.263 259.346 542.994 258.564C567.446 254.522 588.374 239.326 608.288 224.573C609.325 223.805 610.403 222.987 610.94 221.815C611.477 220.642 611.248 219.01 610.109 218.405C608.803 217.711 607.263 218.669 606.098 219.581C587.567 234.09 567.772 248.267 544.794 253.364C540.439 254.33 535.638 254.899 531.719 252.766C528.787 251.171 526.806 248.302 524.937 245.536L513.345 228.385C512.369 226.941 511.357 225.388 511.321 223.645C511.285 221.902 512.693 220.016 514.422 220.241C530.67 222.354 546.995 223.873 563.354 224.794C564.656 224.867 566.018 224.926 567.205 224.384C568.733 223.686 569.665 222.14 570.48 220.671C577.406 208.186 582.696 194.795 586.173 180.948C590.796 184.263 592.953 189.877 595.011 195.234C595.168 195.641 595.324 196.048 595.48 196.451ZM581.18 179.852C578.085 191.433 573.505 202.616 567.589 213.041C566.598 214.789 565.497 216.589 563.763 217.604C561.556 218.896 558.811 218.653 556.27 218.369L515.798 213.853C522.513 204.98 532.488 199.221 542.455 194.273C551.889 189.589 561.575 185.411 571.456 181.762C574.584 180.607 577.865 179.488 581.18 179.852ZM357.541 426.884C358.539 436.301 359.592 445.917 363.594 454.5L357.044 396.196C356.774 393.796 356.854 390.741 359.062 389.762C360.93 411.708 363.715 433.575 367.408 455.288C367.846 457.865 363.974 459.338 361.8 457.886C359.625 456.434 358.929 453.607 358.435 451.04C354.831 432.33 352.85 413.307 352.521 394.256C347.933 395.16 344.716 399.607 343.788 404.19C342.86 408.773 343.754 413.505 344.648 418.095L353.28 462.414C354.625 469.324 355.971 476.464 354.486 483.345C348.776 457.274 344.185 430.959 340.731 404.495C296.917 431.287 240.462 436.269 192.633 417.565C182.187 413.48 171.813 408.066 164.913 399.223C159.478 392.256 156.578 383.607 155.058 374.903C149.662 343.99 160.72 312.458 175.729 284.9C176.12 284.183 176.514 283.464 176.91 282.742L176.91 282.742L176.91 282.741L176.91 282.741L176.911 282.74C182.282 272.943 187.878 262.736 187.45 251.655C187.422 250.923 187.37 250.176 187.319 249.425C187.081 245.976 186.836 242.428 188.801 239.694C191.436 244.487 192.439 250.159 191.609 255.566C236.968 253.614 282.394 253.22 327.78 254.387C328.31 256.474 325.286 257.443 323.134 257.411C280.779 256.779 238.404 257.501 196.095 259.574C194.755 259.64 193.348 259.727 192.212 260.441C191.017 261.191 190.321 262.508 189.679 263.764C177.671 287.259 165.624 311.096 159.82 336.836C156.835 350.072 155.692 364.559 161.809 376.671C164.13 381.265 167.412 385.323 171.077 388.938C190.751 408.344 220.212 414.293 247.843 413.829C265.478 413.533 283.074 410.997 300.075 406.304C318.099 401.328 336.074 393.485 348.377 379.404C355.601 371.135 360.512 361.122 364.812 351.018C373.023 331.727 379.321 311.622 383.583 291.094C386.253 291.656 386.29 295.43 385.674 298.087C378.053 330.963 369.196 366.006 344.096 388.564C321.426 408.938 289.481 415.257 259.049 416.961C241.47 417.945 223.614 417.638 206.587 413.156C189.561 408.675 173.303 399.711 162.494 385.813C165.647 397.834 176.326 406.413 187.444 411.964C216.635 426.541 251.107 425.771 283.34 420.704C304.812 417.328 326.851 411.789 343.561 397.889C357.844 386.008 366.947 369.04 373.798 351.77C381.382 332.655 386.644 312.618 389.429 292.243C391.164 291.147 392.449 294.212 392.229 296.252C388.473 331.173 375.094 365.009 353.953 393.055L357.541 426.884ZM337.24 486.599C335.377 483.454 334.178 479.918 333.743 476.288L331.067 485.357L324.313 459.6C323.79 457.602 322.514 455.102 320.494 455.531C318.53 455.948 318.309 458.644 318.602 460.631C320.073 470.623 322.879 480.417 326.922 489.673L319.74 483.37C319.391 486.371 320.18 489.49 321.915 491.962C318.174 489.207 313.157 488.268 308.672 489.484C311.877 493.936 316.227 497.556 321.188 499.898L315.119 491.427C320.024 494.258 325.164 496.685 330.467 498.673L325.325 492.225L331.679 493.986C326.817 482.926 321.864 471.444 321.982 459.364C323.822 469.191 326.516 478.859 330.023 488.222C330.618 489.809 331.278 491.45 332.544 492.575C333.81 493.701 335.868 494.125 337.194 493.071C338.225 492.252 338.526 490.838 338.76 489.542L341.621 473.672L344.765 493.353C347.148 487.334 354.898 485.825 361.372 485.785C369.921 485.732 378.533 486.673 387.123 487.613H387.123H387.123H387.124H387.124H387.124H387.125H387.125H387.125C402.611 489.306 418.024 490.991 432.861 486.826C432.425 489.12 431.663 491.352 430.605 493.433C442.577 491.69 454.692 490.925 466.788 491.149C471.897 491.243 477.021 491.512 482.145 491.781H482.146H482.146H482.147H482.147H482.148H482.148H482.148H482.149C495.695 492.492 509.242 493.203 522.515 490.687L434.425 489.913C436.08 489.817 437.347 487.893 436.783 486.335C436.22 484.777 434.014 484.11 432.682 485.094C431.815 482.34 427.921 481.115 425.634 482.878C426.96 478.79 429.582 475.134 433.028 472.566C429.138 472.357 425.188 473.548 422.062 475.872L431.537 432.02C430.736 431.331 429.4 431.794 428.808 432.67C428.222 433.536 428.156 434.639 428.095 435.684L428.093 435.717C427.205 450.691 421.925 465.378 413.075 477.489L409.6 467.434L404.619 479.444C402.362 477.696 399.159 477.255 396.513 478.328C397.189 480.896 399.244 483.056 401.774 483.86L402.953 480.702L410.734 485.914C407.76 482.798 407.116 477.699 409.221 473.94L413.93 481.839L423.057 463.787C423.108 471.035 420.001 477.886 416.957 484.463C420.266 481.871 423.111 478.688 425.316 475.109C427.444 478.878 425.12 483.931 421.418 486.175C417.717 488.418 413.139 488.54 408.815 488.357C402.217 488.078 395.569 487.25 388.929 486.422L388.928 486.422C374.017 484.563 359.146 482.709 344.981 487.1L342.938 468.266C339.818 473.904 337.866 480.185 337.24 486.599ZM426.114 487.102C425.794 486.719 425.796 486.105 426.118 485.725L426.376 485.822C426.808 484.787 428.628 484.872 428.962 485.943C428.122 486.548 427.137 486.949 426.114 487.102ZM474.24 287C463.981 281.815 451.772 283.214 440.384 284.775C437.166 285.216 433.885 285.679 430.97 287.112C428.055 288.545 425.517 291.14 425.014 294.349C397.2 290.876 370.547 278.634 349.791 259.797C345.286 255.709 340.689 249.887 342.715 244.151C343.352 242.348 344.591 240.827 345.88 239.414C355.557 228.804 368.899 222.423 381.888 216.298C367.167 217.589 353.042 224.749 343.299 235.86C341.066 238.406 339.007 241.251 338.238 244.549C336.339 252.693 342.665 260.333 348.995 265.797C369.195 283.23 394.602 294.551 421.072 297.913C422.659 298.115 422.741 300.347 422.596 301.94C421.951 309.028 425.814 315.945 431.17 320.634C436.525 325.322 443.232 328.137 449.888 330.658C470.5 338.465 491.891 344.216 513.639 347.795C515.076 348.032 517.05 347.92 517.353 346.495C512.334 343.175 506.293 341.91 500.386 340.673L500.365 340.669L500.299 340.655L499.809 340.552L499.43 340.473C484.455 337.32 469.681 333.214 455.226 328.188C449.296 326.126 443.352 323.874 438.182 320.313C433.011 316.751 428.62 311.72 426.966 305.664C426.15 302.673 427.258 298.208 430.335 298.585C442.865 300.117 455.74 301.63 467.975 298.522C470.744 297.819 473.63 296.758 475.318 294.453C477.006 292.148 476.79 288.289 474.24 287ZM442.634 295.281C438.333 294.54 433.938 294.342 429.588 294.692C431.702 290.677 436.866 289.62 441.362 289.007C451.134 287.677 461.311 286.379 470.674 289.477C471.293 289.682 471.953 289.943 472.288 290.502C472.728 291.238 472.407 292.24 471.781 292.826C471.155 293.413 470.302 293.679 469.476 293.91C460.777 296.341 451.536 296.813 442.634 295.281ZM300.302 497.857C307.5 497.655 314.742 499.247 321.192 502.447C319.468 504.925 316.003 505.272 312.986 505.387L234.136 508.379C233.413 508.29 233.277 507.174 233.789 506.656C234.301 506.138 235.101 506.072 235.828 506.036L312.801 502.282C308.354 501.874 304.015 500.338 300.302 497.857ZM148.558 237.083C147.434 242.457 151.98 248.19 157.455 248.596C148.502 262.089 132.375 268.747 116.88 273.448C107.209 276.381 96.4811 278.79 87.2616 274.651C86.1173 275.35 87.3375 277.072 88.5454 277.654C97.5175 281.977 108.155 279.568 117.698 276.72C131.694 272.543 146.12 267.145 155.643 256.071C156.033 255.618 156.421 255.152 156.812 254.682L156.812 254.682L156.813 254.681L156.813 254.681C159.264 251.735 161.82 248.663 165.505 247.981C177.37 245.787 187.252 238.356 197.016 231.013L197.017 231.012L197.017 231.012L197.018 231.011L197.019 231.011C199.233 229.346 201.441 227.685 203.664 226.092C217.184 216.402 232.179 208.774 247.972 203.554C249.366 203.092 251.063 202.237 250.938 200.773C231.358 202.57 214.243 214.246 198.462 225.975L197.936 226.367C187.211 234.34 176.003 242.672 162.806 244.648C167.117 241.248 166.207 233.392 161.344 230.845C156.48 228.298 149.681 231.709 148.558 237.083ZM152.211 240.367C151.331 237.76 152.69 234.659 155.104 233.339C155.789 232.964 156.556 232.714 157.337 232.713C159.914 232.711 161.797 235.468 161.814 238.046C161.831 240.624 160.524 243.001 159.254 245.245C156.283 244.79 153.173 243.214 152.211 240.367ZM445.203 182.925C444.473 182.112 444.697 181.018 444.93 179.884C445.094 179.083 445.262 178.262 445.101 177.508C444.96 176.853 444.579 176.296 444.196 175.737C443.857 175.242 443.518 174.746 443.343 174.18C443.383 173.432 444.383 173.048 445.065 173.359C445.747 173.669 446.128 174.401 446.366 175.111C447.234 177.703 446.788 180.699 445.203 182.925ZM379.196 126.051C381.021 121.726 384.638 117.89 389.25 117.012C390.742 116.728 390.695 114.267 389.388 113.494C388.08 112.72 386.401 113.178 385.029 113.83C378.64 116.872 374.606 123.566 373.025 130.463C371.445 137.361 371.968 144.544 372.499 151.6L375.324 189.107C375.42 190.382 375.537 191.721 376.247 192.785C377.693 194.951 380.795 195.019 383.395 194.854L396.553 194.018C393.628 191.726 389.703 190.762 386.05 191.436C383.916 191.831 381.773 190.423 380.643 188.571C379.512 186.719 379.181 184.503 378.901 182.352C377.067 168.276 376.394 154.049 376.891 139.862C377.056 135.171 377.372 130.376 379.196 126.051ZM412.793 458.97C412.046 459.512 411.296 458.277 411.187 457.36C406.103 414.618 405.336 371.493 404.575 328.456L404.062 299.443C404.047 298.616 404.059 297.711 404.59 297.078C405.504 295.987 407.427 296.487 408.226 297.665C409.025 298.842 409.026 300.367 409 301.79C408.216 344.141 408.73 386.574 412.786 428.738C412.835 429.251 412.885 429.764 412.935 430.278C413.864 439.856 414.808 449.578 412.793 458.97ZM370.518 189.546C369.404 188.934 368.031 189.28 366.812 189.641C310.44 206.313 254.196 223.505 198.781 243.127C197.744 243.494 196.558 244.023 196.32 245.098C196.068 246.235 197.139 247.322 198.285 247.533C199.431 247.744 200.59 247.335 201.684 246.932C257.219 226.503 313.59 208.346 370.608 192.522C371.832 192.182 371.632 190.157 370.518 189.546Z" fill="#00160A"/>
<path fill-rule="evenodd" clip-rule="evenodd" d="M571.366 444.586C570.053 445.162 568.632 445.699 567.22 445.456C565.807 445.213 564.485 443.887 564.769 442.482C567.363 429.634 564.106 415.723 556.078 405.363C553.264 401.732 549.914 398.537 547.173 394.852C545.445 392.53 543.908 389.609 544.784 386.851C546.031 382.925 551.052 381.971 555.161 381.69C564.713 381.039 574.266 380.388 583.818 379.737C588.219 379.437 593.289 379.393 596.227 382.684C604.406 391.845 620.347 392.46 629.208 383.956C630.579 382.64 632.305 385.26 632.251 387.16C632.08 393.133 629.618 399.011 625.482 403.324C624.507 404.342 623.259 405.339 621.856 405.193C620.454 405.047 619.42 403.033 620.538 402.174C622.937 400.332 625.379 398.443 627.061 395.93C628.743 393.416 629.558 390.12 628.412 387.322C622.241 395.128 616.012 402.887 609.724 410.599C598.822 423.97 587.162 437.647 571.366 444.586M588.596 405.239C587.027 405.673 585.353 405.34 583.786 404.897C572.511 401.711 562.125 392.902 550.592 394.964C564.039 405.794 571.179 423.953 568.709 441.042C577.569 439.145 584.566 432.53 590.842 425.994C600.13 416.319 608.95 406.194 617.259 395.667C611.287 395.618 605.337 393.895 600.262 390.745C593.993 392.296 594.82 403.517 588.596 405.239M596.784 387.452C593.049 383.049 586.337 383.185 580.585 383.69C573.083 384.349 565.581 385.008 558.08 385.667C555.034 385.934 551.536 386.469 549.948 389.082C562.932 391.8 575.591 396.069 587.569 401.77C589.11 396.931 592.197 392.598 596.268 389.561C596.726 389.22 597.25 388.782 597.189 388.214C597.158 387.923 596.973 387.675 596.784 387.452V387.452Z" fill="#FFB61D"/>
<path fill-rule="evenodd" clip-rule="evenodd" d="M40.6081 282.456C29.3088 277.937 15.8435 279.277 5.65654 285.934C4.67032 286.579 3.25241 285.86 2.76418 284.788C2.27596 283.716 2.45858 282.468 2.70831 281.317C5.96183 266.317 18.9229 254.84 33.3368 249.566C47.7506 244.291 63.5169 244.277 78.839 245.178C80.3593 245.268 81.9484 245.387 83.2452 246.185C84.5421 246.984 85.4146 248.691 84.7682 250.07C78.7409 262.928 74.2006 276.482 71.2666 290.377C70.7909 292.63 68.4606 294.125 66.1655 294.312C63.8705 294.5 61.6217 293.652 59.5389 292.67C53.048 289.609 47.2714 285.12 40.6081 282.456M41.8997 267.278C40.8927 268.097 39.3187 267.664 38.3712 266.778C37.4236 265.892 36.8837 264.665 36.1389 263.603C32.1437 257.904 22.9757 258.377 17.5413 262.725C12.1069 267.073 9.47722 273.944 7.08257 280.479C23.0257 273.554 42.6624 276.039 56.3777 286.717C58.2503 288.175 60.1084 289.818 62.4143 290.379C64.7202 290.94 67.6252 289.932 68.2092 287.632C71.3295 275.343 75.1746 263.239 79.7178 251.402C71.0004 262.238 52.6933 258.509 41.8997 267.278M38.4305 260.73C39.3258 261.855 40.9513 262.153 42.3664 261.9C43.7814 261.646 45.067 260.941 46.3855 260.368C50.9249 258.395 55.9526 257.954 60.8193 257.052C65.686 256.15 70.7058 254.623 74.1318 251.051C66.4018 251.027 58.6719 251.004 50.942 250.981C43.1737 250.957 34.8026 251.122 28.5619 255.748C32.361 255.887 36.063 257.756 38.4305 260.73Z" fill="#FFB61D"/>
<path fill-rule="evenodd" clip-rule="evenodd" d="M403.627 281.419C403.609 274.62 403.591 267.821 403.572 261.022C403.567 259.069 403.562 257.117 403.557 255.164C403.553 253.817 403.779 252.133 405.058 251.714C406.026 251.397 407.092 252.093 407.544 253.005C407.997 253.917 407.991 254.981 407.976 255.999C407.835 265.487 407.694 274.976 407.553 284.464C407.532 285.828 407.304 287.507 406.026 287.986C403.895 286.779 403.634 283.868 403.627 281.419H403.627Z" fill="#00160A"/>
<path fill-rule="evenodd" clip-rule="evenodd" d="M390.053 275.127C389.069 275.559 388.561 273.937 388.713 272.873C389.257 269.066 389.803 265.25 390.729 261.517C391.306 259.193 392.137 256.748 394.056 255.317C395.976 253.885 399.272 254.136 400.211 256.338C400.666 257.405 400.476 258.624 400.268 259.765C398.975 266.828 397.235 273.81 395.06 280.653C394.968 280.943 394.867 281.246 394.647 281.457C394.112 281.97 393.146 281.625 392.775 280.983C392.405 280.341 392.453 279.55 392.512 278.811C393.396 278.746 393.808 277.706 394.02 276.846C394.887 273.332 395.754 269.819 396.62 266.305C397.295 263.571 397.91 260.457 396.341 258.119C394.728 259.112 394.123 261.12 393.643 262.952C392.677 266.637 391.712 270.322 390.747 274.007C390.631 274.447 390.47 274.944 390.053 275.127L390.053 275.127Z" fill="#00160A"/>
</svg>
