<svg width="580" height="580" viewBox="0 0 580 580" fill="none" xmlns="http://www.w3.org/2000/svg">
<path d="M482.282 251.958C486.597 251.958 490.095 248.46 490.095 244.145C490.095 239.83 486.597 236.333 482.282 236.333C477.968 236.333 474.47 239.83 474.47 244.145C474.47 248.46 477.968 251.958 482.282 251.958Z" fill="#D7E8F0"/>
<path d="M503.865 253.315C507.378 253.315 510.227 250.466 510.227 246.952C510.227 243.438 507.378 240.59 503.865 240.59C500.35 240.59 497.502 243.438 497.502 246.952C497.502 250.466 500.35 253.315 503.865 253.315Z" fill="#D7E8F0"/>
<path d="M383.682 372.94C383.682 372.94 382.568 369.744 385.845 369.141C389.122 368.538 393.212 365.203 395.05 372.94C396.889 380.677 406.807 418.278 404.783 423.928C402.758 429.577 393.322 439.071 393.183 437.024C393.043 434.977 391.773 411.034 389.215 401.441C386.657 391.848 383.682 372.94 383.682 372.94Z" fill="#D7E8F0"/>
<path d="M370.969 336.4C371.322 336.673 372.674 343.099 377.627 343.76C382.58 344.422 386.518 342.6 383.201 336.128C379.883 329.655 377.534 320.299 375.76 325.009C375.218 326.404 374.381 327.664 373.306 328.705C372.23 329.745 370.942 330.54 369.53 331.035L370.969 336.4Z" fill="#D7E8F0"/>
<path d="M361.705 299.622L361.572 299.755C360.992 300.422 360.511 301.24 359.762 301.768C357.732 303.201 353.539 303.473 351.544 302.69C351.463 302.603 351.376 302.516 351.306 302.435C350.453 301.478 349.566 300.527 348.661 299.535C324.881 273.928 279.734 240.798 215.337 238.635V234.372C215.592 234.372 215.864 234.372 216.125 234.372C266.092 234.372 321.059 261.243 357.645 295.632C358.701 296.618 359.741 297.611 360.766 298.613C361.062 298.955 361.398 299.28 361.705 299.622Z" fill="#D7E8F0"/>
<path d="M195.286 545.681C193.784 544.747 192.282 543.756 190.82 542.781" stroke="black" stroke-width="3.68" stroke-miterlimit="10"/>
<path d="M544.248 505.064L487.988 544.655C487.918 544.62 487.854 544.568 487.785 544.533C483.829 542.114 482.037 538.153 478.748 535.108C475.61 532.208 471.487 530.027 467.119 530.027C463.091 529.988 459.188 531.433 456.157 534.087C453.431 536.575 451.691 539.951 448.994 542.474C445.932 545.403 441.863 547.045 437.626 547.062C434.762 547.064 431.943 546.341 429.434 544.961C426.923 543.58 424.804 541.588 423.271 539.168L422.517 537.909C420.983 535.491 418.863 533.499 416.354 532.119C413.844 530.739 411.026 530.016 408.162 530.016C405.298 530.016 402.481 530.739 399.971 532.119C397.462 533.499 395.341 535.491 393.807 537.909L393.059 539.168C391.53 541.584 389.416 543.575 386.913 544.957C384.409 546.339 381.598 547.067 378.739 547.073C374.505 547.056 370.44 545.413 367.382 542.485C364.674 539.962 362.951 536.587 360.202 534.099C357.173 531.442 353.269 529.996 349.24 530.039C344.896 530.039 340.766 532.202 337.64 535.119C334.351 538.17 332.565 542.126 328.609 544.544C325.965 546.204 322.907 547.084 319.785 547.084C316.663 547.084 313.604 546.204 310.96 544.544C307.004 542.126 305.212 538.164 301.924 535.119C298.786 532.219 294.662 530.039 290.324 530.039C286.295 530 282.393 531.446 279.362 534.099C276.636 536.587 274.896 539.962 272.204 542.485C269.14 545.414 265.069 547.056 260.831 547.073C257.967 547.076 255.148 546.353 252.638 544.972C250.128 543.592 248.008 541.599 246.476 539.179L245.727 537.921C244.193 535.503 242.072 533.511 239.562 532.131C237.052 530.751 234.234 530.028 231.37 530.028C228.505 530.028 225.687 530.751 223.178 532.131C220.667 533.511 218.546 535.503 217.012 537.921L216.263 539.179C212.656 545.252 204.919 548.065 198.144 546.522C189.85 544.62 187.698 536.366 180.994 532.44C179.12 531.349 176.98 530.804 174.996 529.928C168.779 527.22 164.649 521.489 159.737 517.058L174.132 530.056C172.769 528.826 171.911 524.836 170.971 523.096C169.559 520.514 167.931 518.056 166.105 515.747C162.445 511.107 158.53 506.781 154.865 502.123C146.536 491.544 138.091 481.058 129.774 470.467C124.154 463.31 118.591 456.106 113.163 448.798C109.253 443.526 100.403 434.199 106.203 427.373C107.43 426.051 109.1 425.226 110.895 425.053C118.736 423.997 127.912 426.567 135.707 427.518C153.797 429.739 171.87 432.077 189.955 434.327C214.152 437.32 238.379 440.301 262.536 443.833L266.631 444.454L268.063 444.674C268.782 444.796 269.328 444.9 269.681 444.947L270.128 445.016C270.157 445.02 270.186 445.02 270.215 445.016L540.559 488.986C542.305 489.272 543.927 490.071 545.217 491.282C546.508 492.493 547.408 494.061 547.804 495.786C548.2 497.51 548.073 499.314 547.439 500.967C546.806 502.619 545.695 504.045 544.248 505.064Z" fill="#FFD377"/>
<path d="M488.024 544.661L544.249 505.07C545.699 504.053 546.812 502.627 547.447 500.974C548.083 499.321 548.21 497.516 547.814 495.79C547.418 494.064 546.517 492.495 545.224 491.284C543.932 490.073 542.308 489.275 540.56 488.992L101.883 417.652C93.9542 416.376 88.4964 425.395 93.3394 431.822L145 500.482C153.611 511.32 163.307 521.251 173.936 530.12" stroke="black" stroke-width="3.68" stroke-miterlimit="10"/>
<path d="M513.695 530.033C513.709 533.06 512.912 536.035 511.387 538.65C509.863 541.266 507.666 543.425 505.026 544.905C502.385 546.384 499.396 547.13 496.37 547.065C493.343 546.999 490.39 546.125 487.815 544.533C483.86 542.108 482.073 538.153 478.779 535.096C475.641 532.196 471.529 530.021 467.179 530.021C463.15 529.983 459.249 531.428 456.217 534.081C453.485 536.575 451.745 539.945 449.048 542.468C445.985 545.394 441.916 547.034 437.68 547.05C434.816 547.051 431.999 546.327 429.489 544.947C426.979 543.567 424.859 541.575 423.325 539.156L422.577 537.898C421.043 535.479 418.922 533.488 416.413 532.107C413.904 530.728 411.086 530.004 408.222 530.004C405.358 530.004 402.54 530.728 400.031 532.107C397.522 533.488 395.401 535.479 393.867 537.898L393.113 539.156C391.582 541.584 389.461 543.584 386.948 544.97C384.434 546.355 381.61 547.081 378.741 547.079C374.507 547.061 370.44 545.421 367.378 542.497C364.676 539.974 362.941 536.604 360.21 534.11C357.178 531.457 353.276 530.012 349.248 530.05C344.886 530.05 340.768 532.208 337.648 535.125C334.353 538.182 332.567 542.137 328.611 544.562C325.963 546.218 322.903 547.096 319.781 547.096C316.658 547.096 313.598 546.218 310.95 544.562C306.995 542.137 305.208 538.182 301.92 535.125C298.782 532.225 294.664 530.05 290.32 530.05C286.291 530.012 282.389 531.457 279.358 534.11C276.626 536.604 274.892 539.974 272.189 542.497C269.127 545.421 265.061 547.061 260.827 547.079C257.962 547.081 255.144 546.359 252.634 544.978C250.124 543.598 248.004 541.605 246.472 539.185L245.718 537.927C244.183 535.508 242.063 533.517 239.554 532.136C237.044 530.757 234.227 530.033 231.363 530.033C228.499 530.033 225.681 530.757 223.172 532.136C220.662 533.517 218.542 535.508 217.008 537.927L216.259 539.185C214.726 541.604 212.605 543.596 210.096 544.976C207.586 546.356 204.768 547.08 201.904 547.079C197.669 547.063 193.6 545.423 190.536 542.497C187.839 539.974 186.099 536.604 183.368 534.11C180.336 531.457 176.434 530.012 172.406 530.05C168.044 530.05 163.932 532.208 160.806 535.125C157.511 538.182 155.725 542.137 151.769 544.562C149.195 546.154 146.241 547.028 143.215 547.094C140.188 547.159 137.2 546.413 134.559 544.934C131.918 543.454 129.722 541.295 128.197 538.679C126.673 536.064 125.876 533.089 125.89 530.062" stroke="black" stroke-width="3.68" stroke-miterlimit="10"/>
<path d="M394.18 369.46C398.629 386.715 401.784 404.411 405.31 421.66" stroke="black" stroke-width="3.68" stroke-linecap="round" stroke-linejoin="round"/>
<path d="M29 547.073V420.668C29 317.794 112.404 234.39 215.279 234.39C265.251 234.39 320.218 261.261 356.799 295.649C357.854 296.635 358.894 297.629 359.919 298.63C360.238 298.955 360.58 299.28 360.888 299.622" stroke="black" stroke-width="3.68" stroke-linecap="round" stroke-linejoin="round"/>
<path d="M375.015 319.157C378.043 324.668 380.775 330.337 383.199 336.139C383.367 336.568 383.559 336.974 383.727 337.403C384.307 338.801 384.887 340.199 385.397 341.614" stroke="black" stroke-width="3.68" stroke-linecap="round" stroke-linejoin="round"/>
<path d="M472.271 285.325C472.271 285.325 464.899 299.013 482.513 300.15C500.128 301.287 511.618 287.274 511.618 287.274" stroke="black" stroke-width="3.68" stroke-linecap="round" stroke-linejoin="round"/>
<path d="M438.985 400.78C441.63 401.905 444.321 403.013 447.065 404.051C440.421 402.414 433.476 402.444 426.846 404.138C425.721 404.446 416.487 408.338 415.246 408.152C415.426 404.092 417.05 389.667 418.146 387.272C422.896 389.546 435.302 399.208 438.985 400.78Z" fill="#2E2E2E"/>
<path d="M547.213 356.7L541.773 371.519C541.773 371.519 528.34 340.779 498.273 352.959C498.273 352.959 493.54 371.154 468.606 366.241C442.9 361.183 428.133 354.844 428.76 351.387C429.438 347.669 432.866 340.692 433.661 341.22C435.174 337.007 437.101 332.954 439.414 329.121C440.429 327.445 440.493 329.121 440.545 327.961C441.346 310.683 425.895 307.081 425.895 307.081C438.956 294.756 455.341 287.268 472.068 284.461C472.068 284.461 466.593 295.974 475.798 298.7C485.002 301.426 495.442 301.989 513.991 286.682C514.002 286.717 565.066 297.064 547.213 356.7Z" fill="#2E2E2E"/>
<path d="M534.906 383.74C533.49 391.042 519.101 461.06 484.237 475.554C490.698 444.64 467.272 419.41 467.272 419.41C463.107 412.606 457.911 408.465 452.627 406.07C475.247 413.691 500.053 416.133 520.104 399.968C525.81 395.318 530.798 389.849 534.906 383.74Z" fill="#2E2E2E"/>
<path d="M472.554 427.408C466.928 418.128 459.922 408.088 447.116 404.388C433.358 400.397 417.64 403.982 410.442 414.248C404.578 422.635 399.138 431.248 393.344 439.704C391.656 442.192 389.916 444.68 388.124 447.134C385.873 450.272 383.606 453.392 381.355 456.512C379.94 458.473 378.542 460.433 377.127 462.376" stroke="black" stroke-width="3.68" stroke-miterlimit="10"/>
<path d="M414.346 409.996C410.32 407.741 406.132 405.787 401.818 404.15" stroke="black" stroke-width="3.68" stroke-miterlimit="10"/>
<path d="M284.2 447.302C293.202 440.533 302.221 433.765 311.071 426.776C326.105 414.926 340.785 402.05 360.545 399.138C370.075 397.784 379.773 398.188 389.157 400.333" stroke="black" stroke-width="3.68" stroke-miterlimit="10"/>
<path d="M535.027 383.049C535.027 383.049 517.981 476.969 472.068 478.134" stroke="black" stroke-width="3.68" stroke-miterlimit="10"/>
<path d="M455.185 463.432L448.132 473.964" stroke="black" stroke-width="3.68" stroke-miterlimit="10"/>
<path d="M347.571 457.62C347.362 457.585 350.906 455.538 355.21 453.107C359.355 450.764 364.149 449.833 368.869 450.453C373.59 451.074 377.981 453.212 381.38 456.547" stroke="black" stroke-width="3.68" stroke-miterlimit="10"/>
<path d="M368.88 331.279C369.953 333.703 371.96 337.989 373.056 340.669" stroke="black" stroke-width="3.68" stroke-linecap="round" stroke-linejoin="round"/>
<path d="M393.344 439.733C392.034 415.077 387.44 385.601 382.8 369.593" stroke="black" stroke-width="3.68" stroke-linecap="round" stroke-linejoin="round"/>
<path d="M427.872 351.41C431.63 342.844 436.136 334.626 441.34 326.853" stroke="black" stroke-width="3.68" stroke-linecap="round" stroke-linejoin="round"/>
<path d="M417.717 386.28C416.047 394.98 414.73 402.659 413.93 408.836" stroke="black" stroke-width="3.68" stroke-linecap="round" stroke-linejoin="round"/>
<path d="M479.34 283.562C476.904 283.782 474.478 284.094 472.061 284.496C455.334 287.309 438.949 294.797 425.887 307.116C422.672 310.141 419.706 313.421 417.019 316.924C413.898 320.949 410.998 328.094 405.39 329.028C399.149 330.055 394.086 323.884 390.611 319.621C385.049 312.8 379.441 306.031 374.174 298.973C371.785 295.765 369.534 291.763 365.306 290.789C361.896 290.006 358.044 292.459 355.388 294.333" stroke="black" stroke-width="3.68" stroke-linecap="round" stroke-linejoin="round"/>
<path d="M372.604 321.633C374.813 320.885 375.312 323.518 375.312 323.518C375.443 324.598 375.282 325.693 374.846 326.69C374.411 327.686 373.717 328.548 372.836 329.185C369.907 331.505 365.916 332.323 362.251 332.195C360.511 332.137 358.266 331.772 357.17 330.293C356.074 328.814 356.01 326.761 356.335 324.957" stroke="black" stroke-width="3.68" stroke-linecap="round" stroke-linejoin="round"/>
<path d="M346.439 298.369C345.305 299.016 344.316 299.888 343.532 300.933C342.749 301.978 342.189 303.172 341.886 304.442C341.601 305.492 341.712 306.61 342.197 307.583C342.682 308.556 343.509 309.317 344.519 309.72C349.677 312.109 355.53 312.536 360.98 310.921C363.88 310.056 365.73 308.212 367.725 306.089C368.158 305.624 368.493 305.077 368.711 304.48C368.928 303.883 369.023 303.248 368.991 302.614C368.959 301.979 368.799 301.358 368.522 300.786C368.245 300.214 367.855 299.704 367.377 299.286C366.808 298.8 366.132 298.453 365.406 298.273C364.679 298.092 363.92 298.084 363.19 298.248C362.633 298.386 362.111 298.634 361.653 298.978C361.323 299.2 361.019 299.459 360.748 299.75C360.226 300.488 359.621 301.164 358.944 301.762C356.427 303.549 350.493 303.531 349.722 301.919" stroke="black" stroke-width="3.68" stroke-linecap="round" stroke-linejoin="round"/>
<path d="M368.944 303.41C370.455 303.91 371.734 304.94 372.546 306.31C374.97 310.816 369.814 315.213 366.125 316.628C361.816 318.275 357.152 318.258 352.628 317.788C350.506 317.573 347.936 317.614 346.359 315.938C345.741 315.294 345.3 314.503 345.076 313.64C344.851 312.777 344.851 311.871 345.077 311.008C345.16 310.705 345.283 310.414 345.442 310.143" stroke="black" stroke-width="3.68" stroke-linecap="round" stroke-linejoin="round"/>
<path d="M372.748 310.729C372.748 310.729 376.368 312.324 376.008 316.158C375.59 320.606 371.368 322.874 367.476 323.936C363.981 324.836 360.367 325.188 356.764 324.98C355.81 324.96 354.862 324.832 353.939 324.597C351.114 323.802 348.835 320.769 349.531 317.788C349.531 317.689 349.583 317.585 349.612 317.486" stroke="black" stroke-width="3.68" stroke-linecap="round" stroke-linejoin="round"/>
<path d="M381.454 332.137C384.4 331.141 387.53 330.812 390.618 331.174C393.871 331.459 397.016 332.485 399.811 334.173C402.711 336.07 405.327 338.598 408.175 340.617C414.224 344.926 420.633 348.499 427.193 351.95C441.995 359.728 466.633 366.665 474.527 366.404L475.536 366.357C481.336 366.032 487.136 364.414 491.741 360.824C495.235 358.064 497.92 354.413 499.513 350.256C500.806 347.043 501.444 343.604 501.393 340.141C501.364 339.045 501.393 336.8 500.36 336.081" stroke="black" stroke-width="3.68" stroke-linecap="round" stroke-linejoin="round"/>
<path d="M383.728 337.403C386.796 337.403 386.628 341.22 384.441 342.467C384.082 342.666 383.706 342.831 383.316 342.96L382.945 343.064" stroke="black" stroke-width="3.68" stroke-linecap="round" stroke-linejoin="round"/>
<path d="M511.56 286.717C513.469 287.228 515.377 287.808 517.285 288.457L517.935 288.666C527.429 291.868 537.249 296.85 543.136 305.289C549.098 313.879 551.163 324.504 550.676 334.834C549.55 359.148 539.319 384.36 520.086 399.893C508.852 408.958 494.758 412.595 480.478 411.806C473.419 411.346 466.43 410.125 459.633 408.163C452.343 406.133 445.006 403.709 438.22 400.333C436.062 399.26 433.945 398.095 431.892 396.853C424.984 392.625 418.755 387.411 412.752 381.982C409.933 379.419 407.045 376.878 404.313 374.233C401.993 372 399.58 369.634 396.465 368.602C395.248 368.203 393.969 368.026 392.69 368.08C388.717 368.265 384.947 369.872 380.927 369.344C369.484 367.859 365.464 357.083 363.893 347.026C363.469 344.282 363.313 340.512 366.178 338.975C366.688 338.694 367.221 338.459 367.773 338.273C368.701 337.99 369.699 338.031 370.601 338.388C371.504 338.746 372.259 339.398 372.743 340.24C373.479 341.639 374.67 342.747 376.12 343.379C377.569 344.012 379.191 344.132 380.718 343.72L382.905 343.14L383.276 343.035" stroke="black" stroke-width="3.68" stroke-linecap="round" stroke-linejoin="round"/>
<path d="M350.726 302.725L350.471 302.435C349.618 301.478 348.731 300.527 347.826 299.535C324.046 273.928 278.893 240.799 214.496 238.635V234.355" stroke="black" stroke-width="3.68" stroke-miterlimit="10"/>
<path d="M516.96 235.985V235.932C516.37 232.423 514.661 229.198 512.088 226.739C508.11 223.085 502.443 221.966 497.351 221.856C495.326 221.819 493.315 222.195 491.441 222.962C489.568 223.729 487.87 224.87 486.452 226.316C484.231 223.636 485.646 220.127 485.646 220.127C487.386 216.16 490.286 214.664 493.766 214.675C502.629 214.704 514.936 224.686 519.164 228.398C519.785 228.938 520.226 229.349 520.463 229.558C522.992 231.965 519.512 245.34 516.96 235.985Z" fill="#3FBDF1"/>
<path d="M493.748 214.675C496.961 212.065 502.743 209.212 510.376 213.016C518.972 217.308 519.54 224.576 519.146 228.398L493.748 214.675Z" fill="#3FBDF1"/>
<path d="M499.27 273.522C499.27 273.522 477.23 279.984 479.255 252.584C479.751 246.723 480.684 240.907 482.044 235.184C482.189 234.604 482.323 234.024 482.468 233.404C483.108 230.736 484.463 228.294 486.389 226.339" stroke="black" stroke-width="3.68" stroke-linecap="round" stroke-linejoin="round"/>
<path d="M516.896 235.933V235.985C518.363 243.415 516.078 251.158 515.922 251.645" stroke="black" stroke-width="3.68" stroke-linecap="round" stroke-linejoin="round"/>
<path d="M515.922 251.72C518.242 248.663 523.154 251.494 521.518 254.968C519.813 258.593 514.558 262.061 514.558 262.061L511.282 287.918" stroke="black" stroke-width="3.68" stroke-linecap="round" stroke-linejoin="round"/>
<path d="M516.897 235.933C514.316 226.653 502.148 230.527 492.352 229.1C489.237 228.648 487.416 227.575 486.389 226.316C487.807 224.871 489.504 223.729 491.378 222.963C493.252 222.195 495.263 221.819 497.287 221.856C502.38 221.966 508.046 223.086 512.025 226.74C514.598 229.198 516.307 232.423 516.897 235.933Z" fill="black"/>
<path d="M516.908 235.985V235.932C516.318 232.423 514.609 229.198 512.036 226.739C508.057 223.085 502.391 221.966 497.298 221.856C495.274 221.819 493.263 222.195 491.389 222.962C489.515 223.729 487.818 224.87 486.4 226.316C484.179 223.636 485.594 220.127 485.594 220.127C487.334 216.16 490.234 214.664 493.714 214.675C502.576 214.704 514.884 224.686 519.112 228.398C519.733 228.938 520.173 229.349 520.411 229.558C522.94 231.965 519.46 245.34 516.908 235.985Z" stroke="black" stroke-width="3.68" stroke-linecap="round" stroke-linejoin="round"/>
<path d="M493.695 214.675C496.909 212.065 502.691 209.212 510.324 213.016C518.92 217.308 519.488 224.576 519.094 228.398" stroke="black" stroke-width="3.68" stroke-linecap="round" stroke-linejoin="round"/>
<path d="M503.865 255.925C508.82 255.925 512.837 251.908 512.837 246.953C512.837 241.997 508.82 237.98 503.865 237.98C498.909 237.98 494.892 241.997 494.892 246.953C494.892 251.908 498.909 255.925 503.865 255.925Z" stroke="black" stroke-width="3.68" stroke-linecap="round" stroke-linejoin="round"/>
<path d="M482.282 251.958C486.597 251.958 490.095 248.46 490.095 244.145C490.095 239.83 486.597 236.333 482.282 236.333C477.968 236.333 474.47 239.83 474.47 244.145C474.47 248.46 477.968 251.958 482.282 251.958Z" stroke="white" stroke-width="3.68" stroke-linecap="round" stroke-linejoin="round"/>
<path d="M482.282 253.118C487.238 253.118 491.255 249.101 491.255 244.145C491.255 239.19 487.238 235.173 482.282 235.173C477.327 235.173 473.31 239.19 473.31 244.145C473.31 249.101 477.327 253.118 482.282 253.118Z" stroke="black" stroke-width="3.68" stroke-linecap="round" stroke-linejoin="round"/>
<path d="M495.031 245.404L491.22 244.905L488.917 255.484L492.885 255.525" stroke="black" stroke-width="3.68" stroke-linecap="round" stroke-linejoin="round"/>
<path d="M519.587 238.96C520.52 242.758 520.351 246.744 519.1 250.45C519.1 250.45 515.742 252.399 516.745 248.658C517.749 244.917 517.325 239.088 517.325 239.088L519.587 238.96Z" fill="black"/>
<path d="M484.237 272.646L478.518 289.611" stroke="black" stroke-width="3.68" stroke-linecap="round" stroke-linejoin="round"/>
<path d="M504.379 259.086C505.435 257.978 506.641 263.082 506.699 263.616C506.774 265.188 505.806 265.721 504.379 266.058C500.439 266.928 496.316 266.258 492.854 264.184C492.274 263.836 491.114 263.21 491.085 262.444C495.18 262.694 500.8 262.299 504.008 259.475C504.124 259.335 504.257 259.214 504.379 259.086Z" stroke="black" stroke-width="3.68" stroke-miterlimit="10"/>
<path d="M500.417 246.552C501.149 246.453 501.894 246.504 502.605 246.704C503.317 246.903 503.979 247.247 504.553 247.712" stroke="black" stroke-width="3.68" stroke-linecap="round" stroke-linejoin="round"/>
<path d="M484.017 244.18C484.749 244.08 485.494 244.132 486.205 244.331C486.916 244.531 487.579 244.874 488.152 245.34" stroke="black" stroke-width="3.68" stroke-linecap="round" stroke-linejoin="round"/>
<path d="M452.627 406.041C450.747 405.414 448.909 404.747 447.064 404.063C448.973 404.559 450.834 405.221 452.627 406.041Z" fill="#2E2E2E"/>
<path d="M266.632 444.454L268.065 444.675C267.659 444.622 267.16 444.541 266.632 444.454Z" fill="#3FBDF1"/>
<path d="M270.129 445.017L269.682 444.947L270.129 445.017Z" fill="#3FBDF1"/>
</svg>
